<svg xmlns="http://www.w3.org/2000/svg" xmlns:xlink="http://www.w3.org/1999/xlink" width="288" zoomAndPan="magnify" viewBox="0 0 216 215.999996" height="288" preserveAspectRatio="xMidYMid meet" version="1.0"><defs><filter x="0%" y="0%" width="100%" height="100%" id="a19055b3bc"><feColorMatrix values="0 0 0 0 1 0 0 0 0 1 0 0 0 0 1 0 0 0 1 0" color-interpolation-filters="sRGB"/></filter><g/><clipPath id="8733341c9f"><path d="M 2.664062 2.664062 L 213.335938 2.664062 L 213.335938 213.335938 L 2.664062 213.335938 Z M 2.664062 2.664062 " clip-rule="nonzero"/></clipPath><clipPath id="953456f57e"><path d="M 108 2.664062 C 49.824219 2.664062 2.664062 49.824219 2.664062 108 C 2.664062 166.175781 49.824219 213.335938 108 213.335938 C 166.175781 213.335938 213.335938 166.175781 213.335938 108 C 213.335938 49.824219 166.175781 2.664062 108 2.664062 Z M 108 2.664062 " clip-rule="nonzero"/></clipPath><clipPath id="6069ae20d5"><path d="M 0.664062 0.664062 L 211.335938 0.664062 L 211.335938 211.335938 L 0.664062 211.335938 Z M 0.664062 0.664062 " clip-rule="nonzero"/></clipPath><clipPath id="7f55408b99"><path d="M 106 0.664062 C 47.824219 0.664062 0.664062 47.824219 0.664062 106 C 0.664062 164.175781 47.824219 211.335938 106 211.335938 C 164.175781 211.335938 211.335938 164.175781 211.335938 106 C 211.335938 47.824219 164.175781 0.664062 106 0.664062 Z M 106 0.664062 " clip-rule="nonzero"/></clipPath><clipPath id="8e4f7e0ce0"><rect x="0" width="212" y="0" height="212"/></clipPath><clipPath id="fc08b75b34"><path d="M 0 0 L 216 0 L 216 216 L 0 216 Z M 0 0 " clip-rule="nonzero"/></clipPath><linearGradient x1="-30.044183" gradientTransform="matrix(0.618083, 0, 0, 0.61855, 18.569796, 45.991389)" y1="100" x2="319.423517" gradientUnits="userSpaceOnUse" y2="100" id="25619beed7"><stop stop-opacity="1" stop-color="rgb(79.219055%, 94.119263%, 97.24884%)" offset="0"/><stop stop-opacity="1" stop-color="rgb(79.219055%, 94.119263%, 97.24884%)" offset="0.0625"/><stop stop-opacity="1" stop-color="rgb(79.219055%, 94.119263%, 97.24884%)" offset="0.078125"/><stop stop-opacity="1" stop-color="rgb(79.219055%, 94.119263%, 97.24884%)" offset="0.0859375"/><stop stop-opacity="1" stop-color="rgb(78.794861%, 94.111633%, 96.955872%)" offset="0.0898438"/><stop stop-opacity="1" stop-color="rgb(78.370667%, 94.104004%, 96.664429%)" offset="0.09375"/><stop stop-opacity="1" stop-color="rgb(77.941895%, 94.096375%, 96.368408%)" offset="0.0976562"/><stop stop-opacity="1" stop-color="rgb(77.513123%, 94.090271%, 96.072388%)" offset="0.101562"/><stop stop-opacity="1" stop-color="rgb(77.082825%, 94.082642%, 95.776367%)" offset="0.105469"/><stop stop-opacity="1" stop-color="rgb(76.654053%, 94.075012%, 95.481873%)" offset="0.109375"/><stop stop-opacity="1" stop-color="rgb(76.225281%, 94.067383%, 95.185852%)" offset="0.113281"/><stop stop-opacity="1" stop-color="rgb(75.796509%, 94.061279%, 94.889832%)" offset="0.117187"/><stop stop-opacity="1" stop-color="rgb(75.367737%, 94.05365%, 94.593811%)" offset="0.121094"/><stop stop-opacity="1" stop-color="rgb(74.938965%, 94.046021%, 94.299316%)" offset="0.125"/><stop stop-opacity="1" stop-color="rgb(74.510193%, 94.038391%, 94.003296%)" offset="0.128906"/><stop stop-opacity="1" stop-color="rgb(74.081421%, 94.030762%, 93.708801%)" offset="0.132812"/><stop stop-opacity="1" stop-color="rgb(73.652649%, 94.023132%, 93.412781%)" offset="0.136719"/><stop stop-opacity="1" stop-color="rgb(73.223877%, 94.017029%, 93.11676%)" offset="0.140625"/><stop stop-opacity="1" stop-color="rgb(72.795105%, 94.009399%, 92.82074%)" offset="0.144531"/><stop stop-opacity="1" stop-color="rgb(72.366333%, 94.00177%, 92.526245%)" offset="0.148438"/><stop stop-opacity="1" stop-color="rgb(71.937561%, 93.994141%, 92.230225%)" offset="0.152344"/><stop stop-opacity="1" stop-color="rgb(71.508789%, 93.986511%, 91.934204%)" offset="0.15625"/><stop stop-opacity="1" stop-color="rgb(71.080017%, 93.978882%, 91.638184%)" offset="0.160156"/><stop stop-opacity="1" stop-color="rgb(70.651245%, 93.972778%, 91.343689%)" offset="0.164062"/><stop stop-opacity="1" stop-color="rgb(70.220947%, 93.965149%, 91.047668%)" offset="0.167969"/><stop stop-opacity="1" stop-color="rgb(69.792175%, 93.95752%, 90.751648%)" offset="0.171875"/><stop stop-opacity="1" stop-color="rgb(69.363403%, 93.94989%, 90.455627%)" offset="0.175781"/><stop stop-opacity="1" stop-color="rgb(68.934631%, 93.942261%, 90.161133%)" offset="0.179687"/><stop stop-opacity="1" stop-color="rgb(68.505859%, 93.934631%, 89.865112%)" offset="0.183594"/><stop stop-opacity="1" stop-color="rgb(68.077087%, 93.928528%, 89.570618%)" offset="0.1875"/><stop stop-opacity="1" stop-color="rgb(67.648315%, 93.920898%, 89.274597%)" offset="0.191406"/><stop stop-opacity="1" stop-color="rgb(67.219543%, 93.913269%, 88.978577%)" offset="0.195312"/><stop stop-opacity="1" stop-color="rgb(66.790771%, 93.90564%, 88.682556%)" offset="0.199219"/><stop stop-opacity="1" stop-color="rgb(66.362%, 93.899536%, 88.388062%)" offset="0.203125"/><stop stop-opacity="1" stop-color="rgb(65.933228%, 93.891907%, 88.092041%)" offset="0.207031"/><stop stop-opacity="1" stop-color="rgb(65.504456%, 93.884277%, 87.796021%)" offset="0.210937"/><stop stop-opacity="1" stop-color="rgb(65.075684%, 93.876648%, 87.5%)" offset="0.214844"/><stop stop-opacity="1" stop-color="rgb(64.646912%, 93.869019%, 87.205505%)" offset="0.21875"/><stop stop-opacity="1" stop-color="rgb(64.21814%, 93.861389%, 86.909485%)" offset="0.222656"/><stop stop-opacity="1" stop-color="rgb(63.789368%, 93.855286%, 86.613464%)" offset="0.226562"/><stop stop-opacity="1" stop-color="rgb(63.35907%, 93.847656%, 86.317444%)" offset="0.230469"/><stop stop-opacity="1" stop-color="rgb(62.930298%, 93.840027%, 86.022949%)" offset="0.234375"/><stop stop-opacity="1" stop-color="rgb(62.501526%, 93.832397%, 85.726929%)" offset="0.238281"/><stop stop-opacity="1" stop-color="rgb(62.072754%, 93.824768%, 85.430908%)" offset="0.242188"/><stop stop-opacity="1" stop-color="rgb(61.643982%, 93.817139%, 85.134888%)" offset="0.246094"/><stop stop-opacity="1" stop-color="rgb(61.21521%, 93.811035%, 84.840393%)" offset="0.25"/><stop stop-opacity="1" stop-color="rgb(60.786438%, 93.803406%, 84.544373%)" offset="0.253906"/><stop stop-opacity="1" stop-color="rgb(60.357666%, 93.795776%, 84.249878%)" offset="0.257812"/><stop stop-opacity="1" stop-color="rgb(59.928894%, 93.788147%, 83.953857%)" offset="0.261719"/><stop stop-opacity="1" stop-color="rgb(59.500122%, 93.780518%, 83.657837%)" offset="0.265625"/><stop stop-opacity="1" stop-color="rgb(59.07135%, 93.772888%, 83.361816%)" offset="0.269531"/><stop stop-opacity="1" stop-color="rgb(58.642578%, 93.766785%, 83.067322%)" offset="0.273438"/><stop stop-opacity="1" stop-color="rgb(58.213806%, 93.759155%, 82.771301%)" offset="0.277344"/><stop stop-opacity="1" stop-color="rgb(57.785034%, 93.751526%, 82.475281%)" offset="0.28125"/><stop stop-opacity="1" stop-color="rgb(57.354736%, 93.743896%, 82.17926%)" offset="0.285156"/><stop stop-opacity="1" stop-color="rgb(56.925964%, 93.737793%, 81.884766%)" offset="0.289062"/><stop stop-opacity="1" stop-color="rgb(56.201172%, 93.65387%, 81.463623%)" offset="0.292969"/><stop stop-opacity="1" stop-color="rgb(55.476379%, 93.569946%, 81.044006%)" offset="0.296875"/><stop stop-opacity="1" stop-color="rgb(54.411316%, 93.400574%, 80.482483%)" offset="0.300781"/><stop stop-opacity="1" stop-color="rgb(53.346252%, 93.231201%, 79.920959%)" offset="0.304687"/><stop stop-opacity="1" stop-color="rgb(52.281189%, 93.060303%, 79.35791%)" offset="0.308594"/><stop stop-opacity="1" stop-color="rgb(51.217651%, 92.89093%, 78.796387%)" offset="0.3125"/><stop stop-opacity="1" stop-color="rgb(50.152588%, 92.720032%, 78.234863%)" offset="0.316406"/><stop stop-opacity="1" stop-color="rgb(49.08905%, 92.550659%, 77.67334%)" offset="0.320312"/><stop stop-opacity="1" stop-color="rgb(48.023987%, 92.379761%, 77.110291%)" offset="0.324219"/><stop stop-opacity="1" stop-color="rgb(46.958923%, 92.210388%, 76.548767%)" offset="0.328125"/><stop stop-opacity="1" stop-color="rgb(45.89386%, 92.03949%, 75.987244%)" offset="0.332031"/><stop stop-opacity="1" stop-color="rgb(44.830322%, 91.870117%, 75.42572%)" offset="0.335938"/><stop stop-opacity="1" stop-color="rgb(43.765259%, 91.699219%, 74.862671%)" offset="0.339844"/><stop stop-opacity="1" stop-color="rgb(42.701721%, 91.529846%, 74.301147%)" offset="0.34375"/><stop stop-opacity="1" stop-color="rgb(41.636658%, 91.358948%, 73.738098%)" offset="0.347656"/><stop stop-opacity="1" stop-color="rgb(40.571594%, 91.189575%, 73.176575%)" offset="0.351562"/><stop stop-opacity="1" stop-color="rgb(39.506531%, 91.018677%, 72.615051%)" offset="0.355469"/><stop stop-opacity="1" stop-color="rgb(38.442993%, 90.849304%, 72.053528%)" offset="0.359375"/><stop stop-opacity="1" stop-color="rgb(37.37793%, 90.679932%, 71.490479%)" offset="0.363281"/><stop stop-opacity="1" stop-color="rgb(36.314392%, 90.510559%, 70.928955%)" offset="0.367187"/><stop stop-opacity="1" stop-color="rgb(35.249329%, 90.339661%, 70.367432%)" offset="0.371094"/><stop stop-opacity="1" stop-color="rgb(34.184265%, 90.170288%, 69.805908%)" offset="0.375"/><stop stop-opacity="1" stop-color="rgb(33.119202%, 89.99939%, 69.242859%)" offset="0.378906"/><stop stop-opacity="1" stop-color="rgb(32.055664%, 89.830017%, 68.681335%)" offset="0.382812"/><stop stop-opacity="1" stop-color="rgb(30.990601%, 89.659119%, 68.119812%)" offset="0.386719"/><stop stop-opacity="1" stop-color="rgb(29.927063%, 89.489746%, 67.558289%)" offset="0.390625"/><stop stop-opacity="1" stop-color="rgb(28.862%, 89.318848%, 66.995239%)" offset="0.394531"/><stop stop-opacity="1" stop-color="rgb(27.796936%, 89.149475%, 66.433716%)" offset="0.398438"/><stop stop-opacity="1" stop-color="rgb(26.731873%, 88.978577%, 65.870667%)" offset="0.402344"/><stop stop-opacity="1" stop-color="rgb(25.668335%, 88.809204%, 65.309143%)" offset="0.40625"/><stop stop-opacity="1" stop-color="rgb(24.603271%, 88.638306%, 64.74762%)" offset="0.410156"/><stop stop-opacity="1" stop-color="rgb(23.539734%, 88.468933%, 64.186096%)" offset="0.414062"/><stop stop-opacity="1" stop-color="rgb(22.47467%, 88.298035%, 63.623047%)" offset="0.417969"/><stop stop-opacity="1" stop-color="rgb(21.411133%, 88.128662%, 63.061523%)" offset="0.421875"/><stop stop-opacity="1" stop-color="rgb(20.346069%, 87.95929%, 62.5%)" offset="0.425781"/><stop stop-opacity="1" stop-color="rgb(19.281006%, 87.789917%, 61.938477%)" offset="0.429688"/><stop stop-opacity="1" stop-color="rgb(18.215942%, 87.619019%, 61.375427%)" offset="0.433594"/><stop stop-opacity="1" stop-color="rgb(17.152405%, 87.449646%, 60.813904%)" offset="0.4375"/><stop stop-opacity="1" stop-color="rgb(16.087341%, 87.278748%, 60.25238%)" offset="0.441406"/><stop stop-opacity="1" stop-color="rgb(15.023804%, 87.109375%, 59.690857%)" offset="0.445312"/><stop stop-opacity="1" stop-color="rgb(13.95874%, 86.938477%, 59.127808%)" offset="0.449219"/><stop stop-opacity="1" stop-color="rgb(12.893677%, 86.769104%, 58.566284%)" offset="0.453125"/><stop stop-opacity="1" stop-color="rgb(11.828613%, 86.598206%, 58.003235%)" offset="0.457031"/><stop stop-opacity="1" stop-color="rgb(10.765076%, 86.428833%, 57.441711%)" offset="0.460937"/><stop stop-opacity="1" stop-color="rgb(9.700012%, 86.257935%, 56.880188%)" offset="0.464844"/><stop stop-opacity="1" stop-color="rgb(8.636475%, 86.088562%, 56.318665%)" offset="0.46875"/><stop stop-opacity="1" stop-color="rgb(7.571411%, 85.917664%, 55.755615%)" offset="0.472656"/><stop stop-opacity="1" stop-color="rgb(6.506348%, 85.748291%, 55.194092%)" offset="0.476562"/><stop stop-opacity="1" stop-color="rgb(5.441284%, 85.577393%, 54.632568%)" offset="0.480469"/><stop stop-opacity="1" stop-color="rgb(4.377747%, 85.40802%, 54.071045%)" offset="0.484375"/><stop stop-opacity="1" stop-color="rgb(3.312683%, 85.238647%, 53.507996%)" offset="0.488281"/><stop stop-opacity="1" stop-color="rgb(2.249146%, 85.069275%, 52.946472%)" offset="0.492188"/><stop stop-opacity="1" stop-color="rgb(1.184082%, 84.898376%, 52.384949%)" offset="0.496094"/><stop stop-opacity="1" stop-color="rgb(0.119019%, 84.729004%, 51.823425%)" offset="0.5"/><stop stop-opacity="1" stop-color="rgb(0.0656128%, 84.146118%, 51.637268%)" offset="0.503906"/><stop stop-opacity="1" stop-color="rgb(0.0137329%, 83.564758%, 51.452637%)" offset="0.507812"/><stop stop-opacity="1" stop-color="rgb(0.0198364%, 82.958984%, 51.289368%)" offset="0.511719"/><stop stop-opacity="1" stop-color="rgb(0.0274658%, 82.35321%, 51.127625%)" offset="0.515625"/><stop stop-opacity="1" stop-color="rgb(0.0350952%, 81.745911%, 50.964355%)" offset="0.519531"/><stop stop-opacity="1" stop-color="rgb(0.0427246%, 81.140137%, 50.802612%)" offset="0.523438"/><stop stop-opacity="1" stop-color="rgb(0.050354%, 80.532837%, 50.639343%)" offset="0.527344"/><stop stop-opacity="1" stop-color="rgb(0.0579834%, 79.927063%, 50.4776%)" offset="0.53125"/><stop stop-opacity="1" stop-color="rgb(0.0640869%, 79.321289%, 50.314331%)" offset="0.535156"/><stop stop-opacity="1" stop-color="rgb(0.0717163%, 78.715515%, 50.152588%)" offset="0.539062"/><stop stop-opacity="1" stop-color="rgb(0.0793457%, 78.108215%, 49.989319%)" offset="0.542969"/><stop stop-opacity="1" stop-color="rgb(0.0869751%, 77.502441%, 49.827576%)" offset="0.546875"/><stop stop-opacity="1" stop-color="rgb(0.0930786%, 76.895142%, 49.664307%)" offset="0.550781"/><stop stop-opacity="1" stop-color="rgb(0.100708%, 76.289368%, 49.502563%)" offset="0.554687"/><stop stop-opacity="1" stop-color="rgb(0.108337%, 75.683594%, 49.339294%)" offset="0.558594"/><stop stop-opacity="1" stop-color="rgb(0.115967%, 75.07782%, 49.177551%)" offset="0.5625"/><stop stop-opacity="1" stop-color="rgb(0.123596%, 74.47052%, 49.014282%)" offset="0.566406"/><stop stop-opacity="1" stop-color="rgb(0.131226%, 73.864746%, 48.852539%)" offset="0.570312"/><stop stop-opacity="1" stop-color="rgb(0.137329%, 73.258972%, 48.68927%)" offset="0.574219"/><stop stop-opacity="1" stop-color="rgb(0.144958%, 72.653198%, 48.527527%)" offset="0.578125"/><stop stop-opacity="1" stop-color="rgb(0.152588%, 72.045898%, 48.364258%)" offset="0.582031"/><stop stop-opacity="1" stop-color="rgb(0.160217%, 71.440125%, 48.202515%)" offset="0.585938"/><stop stop-opacity="1" stop-color="rgb(0.167847%, 70.832825%, 48.039246%)" offset="0.589844"/><stop stop-opacity="1" stop-color="rgb(0.175476%, 70.227051%, 47.877502%)" offset="0.59375"/><stop stop-opacity="1" stop-color="rgb(0.18158%, 69.621277%, 47.714233%)" offset="0.597656"/><stop stop-opacity="1" stop-color="rgb(0.189209%, 69.015503%, 47.55249%)" offset="0.601562"/><stop stop-opacity="1" stop-color="rgb(0.196838%, 68.408203%, 47.389221%)" offset="0.605469"/><stop stop-opacity="1" stop-color="rgb(0.204468%, 67.802429%, 47.227478%)" offset="0.609375"/><stop stop-opacity="1" stop-color="rgb(0.212097%, 67.195129%, 47.064209%)" offset="0.613281"/><stop stop-opacity="1" stop-color="rgb(0.219727%, 66.589355%, 46.902466%)" offset="0.617187"/><stop stop-opacity="1" stop-color="rgb(0.22583%, 65.983582%, 46.739197%)" offset="0.621094"/><stop stop-opacity="1" stop-color="rgb(0.233459%, 65.377808%, 46.577454%)" offset="0.625"/><stop stop-opacity="1" stop-color="rgb(0.241089%, 64.770508%, 46.414185%)" offset="0.628906"/><stop stop-opacity="1" stop-color="rgb(0.248718%, 64.164734%, 46.252441%)" offset="0.632812"/><stop stop-opacity="1" stop-color="rgb(0.254822%, 63.557434%, 46.089172%)" offset="0.636719"/><stop stop-opacity="1" stop-color="rgb(0.262451%, 62.95166%, 45.927429%)" offset="0.640625"/><stop stop-opacity="1" stop-color="rgb(0.270081%, 62.345886%, 45.76416%)" offset="0.644531"/><stop stop-opacity="1" stop-color="rgb(0.27771%, 61.740112%, 45.602417%)" offset="0.648437"/><stop stop-opacity="1" stop-color="rgb(0.285339%, 61.132812%, 45.439148%)" offset="0.652344"/><stop stop-opacity="1" stop-color="rgb(0.292969%, 60.527039%, 45.277405%)" offset="0.65625"/><stop stop-opacity="1" stop-color="rgb(0.299072%, 59.921265%, 45.114136%)" offset="0.660156"/><stop stop-opacity="1" stop-color="rgb(0.306702%, 59.315491%, 44.952393%)" offset="0.664062"/><stop stop-opacity="1" stop-color="rgb(0.314331%, 58.708191%, 44.789124%)" offset="0.667969"/><stop stop-opacity="1" stop-color="rgb(0.32196%, 58.102417%, 44.62738%)" offset="0.671875"/><stop stop-opacity="1" stop-color="rgb(0.32959%, 57.495117%, 44.464111%)" offset="0.675781"/><stop stop-opacity="1" stop-color="rgb(0.337219%, 56.889343%, 44.302368%)" offset="0.679687"/><stop stop-opacity="1" stop-color="rgb(0.343323%, 56.283569%, 44.139099%)" offset="0.683594"/><stop stop-opacity="1" stop-color="rgb(0.350952%, 55.677795%, 43.977356%)" offset="0.6875"/><stop stop-opacity="1" stop-color="rgb(0.358582%, 55.070496%, 43.814087%)" offset="0.691406"/><stop stop-opacity="1" stop-color="rgb(0.366211%, 54.464722%, 43.652344%)" offset="0.695312"/><stop stop-opacity="1" stop-color="rgb(0.37384%, 53.857422%, 43.489075%)" offset="0.699219"/><stop stop-opacity="1" stop-color="rgb(0.38147%, 53.251648%, 43.327332%)" offset="0.703125"/><stop stop-opacity="1" stop-color="rgb(0.390625%, 52.496338%, 43.183899%)" offset="0.707031"/><stop stop-opacity="1" stop-color="rgb(0.401306%, 51.741028%, 43.040466%)" offset="0.710938"/><stop stop-opacity="1" stop-color="rgb(0.416565%, 50.779724%, 42.921448%)" offset="0.714844"/><stop stop-opacity="1" stop-color="rgb(0.431824%, 49.819946%, 42.802429%)" offset="0.71875"/><stop stop-opacity="1" stop-color="rgb(0.445557%, 48.858643%, 42.683411%)" offset="0.722656"/><stop stop-opacity="1" stop-color="rgb(0.460815%, 47.897339%, 42.565918%)" offset="0.726562"/><stop stop-opacity="1" stop-color="rgb(0.476074%, 46.936035%, 42.446899%)" offset="0.730469"/><stop stop-opacity="1" stop-color="rgb(0.491333%, 45.974731%, 42.329407%)" offset="0.734375"/><stop stop-opacity="1" stop-color="rgb(0.505066%, 45.013428%, 42.210388%)" offset="0.738281"/><stop stop-opacity="1" stop-color="rgb(0.520325%, 44.05365%, 42.092896%)" offset="0.742187"/><stop stop-opacity="1" stop-color="rgb(0.535583%, 43.092346%, 41.973877%)" offset="0.746094"/><stop stop-opacity="1" stop-color="rgb(0.550842%, 42.131042%, 41.856384%)" offset="0.75"/><stop stop-opacity="1" stop-color="rgb(0.564575%, 41.169739%, 41.737366%)" offset="0.753906"/><stop stop-opacity="1" stop-color="rgb(0.579834%, 40.208435%, 41.618347%)" offset="0.757812"/><stop stop-opacity="1" stop-color="rgb(0.595093%, 39.247131%, 41.499329%)" offset="0.761719"/><stop stop-opacity="1" stop-color="rgb(0.610352%, 38.287354%, 41.381836%)" offset="0.765625"/><stop stop-opacity="1" stop-color="rgb(0.624084%, 37.32605%, 41.262817%)" offset="0.769531"/><stop stop-opacity="1" stop-color="rgb(0.639343%, 36.364746%, 41.145325%)" offset="0.773437"/><stop stop-opacity="1" stop-color="rgb(0.654602%, 35.403442%, 41.026306%)" offset="0.777344"/><stop stop-opacity="1" stop-color="rgb(0.669861%, 34.442139%, 40.908813%)" offset="0.78125"/><stop stop-opacity="1" stop-color="rgb(0.683594%, 33.480835%, 40.789795%)" offset="0.785156"/><stop stop-opacity="1" stop-color="rgb(0.698853%, 32.521057%, 40.672302%)" offset="0.789062"/><stop stop-opacity="1" stop-color="rgb(0.714111%, 31.559753%, 40.553284%)" offset="0.792969"/><stop stop-opacity="1" stop-color="rgb(0.72937%, 30.59845%, 40.435791%)" offset="0.796875"/><stop stop-opacity="1" stop-color="rgb(0.744629%, 29.637146%, 40.316772%)" offset="0.800781"/><stop stop-opacity="1" stop-color="rgb(0.759888%, 28.675842%, 40.197754%)" offset="0.804688"/><stop stop-opacity="1" stop-color="rgb(0.773621%, 27.714539%, 40.078735%)" offset="0.808594"/><stop stop-opacity="1" stop-color="rgb(0.788879%, 26.754761%, 39.961243%)" offset="0.8125"/><stop stop-opacity="1" stop-color="rgb(0.804138%, 25.793457%, 39.842224%)" offset="0.816406"/><stop stop-opacity="1" stop-color="rgb(0.819397%, 24.832153%, 39.724731%)" offset="0.820312"/><stop stop-opacity="1" stop-color="rgb(0.83313%, 23.87085%, 39.605713%)" offset="0.824219"/><stop stop-opacity="1" stop-color="rgb(0.848389%, 22.909546%, 39.48822%)" offset="0.828125"/><stop stop-opacity="1" stop-color="rgb(0.863647%, 21.948242%, 39.369202%)" offset="0.832031"/><stop stop-opacity="1" stop-color="rgb(0.878906%, 20.988464%, 39.251709%)" offset="0.835938"/><stop stop-opacity="1" stop-color="rgb(0.892639%, 20.027161%, 39.13269%)" offset="0.839844"/><stop stop-opacity="1" stop-color="rgb(0.907898%, 19.065857%, 39.015198%)" offset="0.84375"/><stop stop-opacity="1" stop-color="rgb(0.923157%, 18.104553%, 38.896179%)" offset="0.847656"/><stop stop-opacity="1" stop-color="rgb(0.938416%, 17.14325%, 38.777161%)" offset="0.851562"/><stop stop-opacity="1" stop-color="rgb(0.952148%, 16.181946%, 38.658142%)" offset="0.855469"/><stop stop-opacity="1" stop-color="rgb(0.967407%, 15.222168%, 38.540649%)" offset="0.859375"/><stop stop-opacity="1" stop-color="rgb(0.982666%, 14.260864%, 38.421631%)" offset="0.863281"/><stop stop-opacity="1" stop-color="rgb(0.997925%, 13.299561%, 38.304138%)" offset="0.867187"/><stop stop-opacity="1" stop-color="rgb(1.011658%, 12.338257%, 38.18512%)" offset="0.871094"/><stop stop-opacity="1" stop-color="rgb(1.026917%, 11.376953%, 38.067627%)" offset="0.875"/><stop stop-opacity="1" stop-color="rgb(1.042175%, 10.415649%, 37.948608%)" offset="0.878906"/><stop stop-opacity="1" stop-color="rgb(1.057434%, 9.455872%, 37.831116%)" offset="0.882812"/><stop stop-opacity="1" stop-color="rgb(1.071167%, 8.494568%, 37.712097%)" offset="0.886719"/><stop stop-opacity="1" stop-color="rgb(1.086426%, 7.533264%, 37.594604%)" offset="0.890625"/><stop stop-opacity="1" stop-color="rgb(1.101685%, 6.57196%, 37.475586%)" offset="0.894531"/><stop stop-opacity="1" stop-color="rgb(1.116943%, 5.610657%, 37.356567%)" offset="0.898437"/><stop stop-opacity="1" stop-color="rgb(1.130676%, 4.649353%, 37.237549%)" offset="0.902344"/><stop stop-opacity="1" stop-color="rgb(1.145935%, 3.689575%, 37.120056%)" offset="0.90625"/><stop stop-opacity="1" stop-color="rgb(1.161194%, 2.728271%, 37.001038%)" offset="0.910156"/><stop stop-opacity="1" stop-color="rgb(1.176453%, 1.766968%, 36.883545%)" offset="0.914062"/><stop stop-opacity="1" stop-color="rgb(1.177979%, 1.667786%, 36.871338%)" offset="0.921875"/><stop stop-opacity="1" stop-color="rgb(1.179504%, 1.568604%, 36.859131%)" offset="0.9375"/><stop stop-opacity="1" stop-color="rgb(1.179504%, 1.568604%, 36.859131%)" offset="1"/></linearGradient><clipPath id="dbccab839c"><rect x="0" width="216" y="0" height="216"/></clipPath><clipPath id="e0da992152"><rect x="0" width="216" y="0" height="216"/></clipPath><clipPath id="fea784e3c6"><rect x="0" width="216" y="0" height="216"/></clipPath><mask id="9581dc408d"><g filter="url(#a19055b3bc)"><g><g clip-path="url(#fea784e3c6)"><g><g clip-path="url(#e0da992152)"><g fill="#000000" fill-opacity="1"><g transform="translate(18.460522, 134.739738)"><g><path d="M 8.390625 0 L 8.390625 -75.25 L 57 -75.25 C 73.925781 -75.25 82.390625 -68.992188 82.390625 -56.484375 C 82.390625 -52.890625 81.523438 -49.675781 79.796875 -46.84375 C 78.078125 -44.007812 75.523438 -41.726562 72.140625 -40 C 80.835938 -37.238281 85.1875 -31.054688 85.1875 -21.453125 C 85.1875 -14.960938 83.078125 -9.765625 78.859375 -5.859375 C 74.648438 -1.953125 68.644531 0 60.84375 0 Z M 27.25 -31.921875 L 27.25 -15.4375 L 52.34375 -15.4375 C 56.832031 -15.4375 60.144531 -15.882812 62.28125 -16.78125 C 64.425781 -17.6875 65.5 -19.832031 65.5 -23.21875 C 65.5 -26.46875 64.425781 -28.726562 62.28125 -30 C 60.144531 -31.28125 56.832031 -31.921875 52.34375 -31.921875 Z M 27.25 -59.796875 L 27.25 -45.078125 L 49.546875 -45.078125 C 54.035156 -45.078125 57.347656 -45.578125 59.484375 -46.578125 C 61.628906 -47.585938 62.703125 -49.679688 62.703125 -52.859375 C 62.703125 -55.753906 61.628906 -57.632812 59.484375 -58.5 C 57.347656 -59.363281 54.035156 -59.796875 49.546875 -59.796875 Z M 27.25 -59.796875 "/></g></g></g><g fill="#000000" fill-opacity="1"><g transform="translate(107.998685, 134.739738)"><g><path d="M 8.390625 0 L 8.390625 -75.25 L 57 -75.25 C 73.925781 -75.25 82.390625 -68.992188 82.390625 -56.484375 C 82.390625 -52.890625 81.523438 -49.675781 79.796875 -46.84375 C 78.078125 -44.007812 75.523438 -41.726562 72.140625 -40 C 80.835938 -37.238281 85.1875 -31.054688 85.1875 -21.453125 C 85.1875 -14.960938 83.078125 -9.765625 78.859375 -5.859375 C 74.648438 -1.953125 68.644531 0 60.84375 0 Z M 27.25 -31.921875 L 27.25 -15.4375 L 52.34375 -15.4375 C 56.832031 -15.4375 60.144531 -15.882812 62.28125 -16.78125 C 64.425781 -17.6875 65.5 -19.832031 65.5 -23.21875 C 65.5 -26.46875 64.425781 -28.726562 62.28125 -30 C 60.144531 -31.28125 56.832031 -31.921875 52.34375 -31.921875 Z M 27.25 -59.796875 L 27.25 -45.078125 L 49.546875 -45.078125 C 54.035156 -45.078125 57.347656 -45.578125 59.484375 -46.578125 C 61.628906 -47.585938 62.703125 -49.679688 62.703125 -52.859375 C 62.703125 -55.753906 61.628906 -57.632812 59.484375 -58.5 C 57.347656 -59.363281 54.035156 -59.796875 49.546875 -59.796875 Z M 27.25 -59.796875 "/></g></g></g></g></g></g></g></g></mask><clipPath id="ab7da8dbf1"><path d="M 0 0 L 216 0 L 216 216 L 0 216 Z M 0 0 " clip-rule="nonzero"/></clipPath><clipPath id="2247fe73f4"><rect x="0" width="216" y="0" height="216"/></clipPath><clipPath id="7db1c08cf0"><rect x="0" width="216" y="0" height="216"/></clipPath><clipPath id="4724754f38"><rect x="0" width="216" y="0" height="216"/></clipPath><clipPath id="4e2da972ca"><rect x="0" width="180" y="0" height="99"/></clipPath><clipPath id="d04d64160f"><rect x="0" width="216" y="0" height="216"/></clipPath></defs><g clip-path="url(#8733341c9f)"><g clip-path="url(#953456f57e)"><g transform="matrix(1, 0, 0, 1, 2, 2)"><g clip-path="url(#8e4f7e0ce0)"><g clip-path="url(#6069ae20d5)"><g clip-path="url(#7f55408b99)"><path fill="#000000" d="M 0.664062 0.664062 L 211.335938 0.664062 L 211.335938 211.335938 L 0.664062 211.335938 Z M 0.664062 0.664062 " fill-opacity="1" fill-rule="nonzero"/></g></g></g></g></g></g><g><g clip-path="url(#d04d64160f)"><g><g clip-path="url(#4724754f38)"><g><g clip-path="url(#7db1c08cf0)"><g mask="url(#9581dc408d)"><g><g clip-path="url(#2247fe73f4)"><g clip-path="url(#ab7da8dbf1)"><rect x="-160.73856" fill="url(#25619beed7)" width="537.47712" y="-160.738557" height="537.477109"/></g></g></g></g></g></g></g></g><g transform="matrix(1, 0, 0, 1, 18, 57)"><g clip-path="url(#4e2da972ca)"><g fill="#ffffff" fill-opacity="1"><g transform="translate(0.451059, 78.311543)"><g><path d="M 6.9375 0 L 6.9375 -76.703125 L 57.003906 -76.703125 C 65.789062 -76.703125 72.425781 -75.046875 76.914062 -71.730469 C 81.542969 -68.3125 83.855469 -63.230469 83.855469 -56.488281 C 83.855469 -52.621094 82.921875 -49.15625 81.050781 -46.089844 C 79.179688 -43.019531 76.429688 -40.5625 72.800781 -38.707031 L 72.136719 -40.007812 L 72.578125 -41.394531 C 77.242188 -39.914062 80.757812 -37.496094 83.125 -34.136719 C 85.476562 -30.792969 86.652344 -26.566406 86.652344 -21.453125 C 86.652344 -14.535156 84.390625 -8.980469 79.863281 -4.785156 C 75.371094 -0.625 69.027344 1.457031 60.839844 1.457031 L 6.9375 1.457031 Z M 9.851562 0 L 8.394531 0 L 8.394531 -1.457031 L 60.839844 -1.457031 C 68.265625 -1.457031 73.949219 -3.28125 77.882812 -6.925781 C 81.785156 -10.539062 83.738281 -15.382812 83.738281 -21.453125 C 83.738281 -25.949219 82.738281 -29.617188 80.738281 -32.457031 C 78.75 -35.28125 75.738281 -37.335938 71.695312 -38.617188 L 68.3125 -39.691406 L 71.476562 -41.304688 C 74.617188 -42.90625 76.976562 -45.007812 78.5625 -47.605469 C 80.148438 -50.207031 80.941406 -53.167969 80.941406 -56.488281 C 80.941406 -62.25 79.019531 -66.546875 75.183594 -69.382812 C 71.207031 -72.320312 65.148438 -73.789062 57.003906 -73.789062 L 8.394531 -73.789062 L 8.394531 -75.246094 L 9.851562 -75.246094 Z M 28.714844 -31.921875 L 28.714844 -15.441406 L 27.257812 -15.441406 L 27.257812 -16.902344 L 52.339844 -16.902344 C 56.636719 -16.902344 59.765625 -17.3125 61.726562 -18.132812 C 63.273438 -18.78125 64.046875 -20.476562 64.046875 -23.214844 C 64.046875 -25.914062 63.210938 -27.757812 61.542969 -28.753906 C 59.632812 -29.894531 56.5625 -30.464844 52.339844 -30.464844 L 27.257812 -30.464844 L 27.257812 -31.921875 Z M 25.800781 -33.378906 L 52.339844 -33.378906 C 57.101562 -33.378906 60.664062 -32.671875 63.039062 -31.257812 C 65.652344 -29.695312 66.960938 -27.015625 66.960938 -23.214844 C 66.960938 -19.183594 65.59375 -16.59375 62.855469 -15.445312 C 60.53125 -14.472656 57.027344 -13.984375 52.339844 -13.984375 L 25.800781 -13.984375 Z M 28.714844 -59.804688 L 28.714844 -45.085938 L 27.257812 -45.085938 L 27.257812 -46.542969 L 49.542969 -46.542969 C 53.816406 -46.542969 56.929688 -47 58.875 -47.910156 C 60.457031 -48.648438 61.246094 -50.296875 61.246094 -52.859375 C 61.246094 -55.105469 60.480469 -56.539062 58.945312 -57.15625 C 56.980469 -57.949219 53.84375 -58.347656 49.542969 -58.347656 L 27.257812 -58.347656 L 27.257812 -59.804688 Z M 25.800781 -61.261719 L 49.542969 -61.261719 C 54.222656 -61.261719 57.71875 -60.792969 60.039062 -59.859375 C 62.789062 -58.75 64.164062 -56.417969 64.164062 -52.859375 C 64.164062 -49.0625 62.8125 -46.53125 60.109375 -45.269531 C 57.773438 -44.175781 54.25 -43.628906 49.542969 -43.628906 L 25.800781 -43.628906 Z M 25.800781 -61.261719 "/></g></g></g><g fill="#ffffff" fill-opacity="1"><g transform="translate(90.000335, 78.311543)"><g><path d="M 6.9375 0 L 6.9375 -76.703125 L 57.003906 -76.703125 C 65.789062 -76.703125 72.425781 -75.046875 76.914062 -71.730469 C 81.542969 -68.3125 83.855469 -63.230469 83.855469 -56.488281 C 83.855469 -52.621094 82.921875 -49.15625 81.050781 -46.089844 C 79.179688 -43.019531 76.429688 -40.5625 72.800781 -38.707031 L 72.136719 -40.007812 L 72.578125 -41.394531 C 77.242188 -39.914062 80.757812 -37.496094 83.125 -34.136719 C 85.476562 -30.792969 86.652344 -26.566406 86.652344 -21.453125 C 86.652344 -14.535156 84.390625 -8.980469 79.863281 -4.785156 C 75.371094 -0.625 69.027344 1.457031 60.839844 1.457031 L 6.9375 1.457031 Z M 9.851562 0 L 8.394531 0 L 8.394531 -1.457031 L 60.839844 -1.457031 C 68.265625 -1.457031 73.949219 -3.28125 77.882812 -6.925781 C 81.785156 -10.539062 83.738281 -15.382812 83.738281 -21.453125 C 83.738281 -25.949219 82.738281 -29.617188 80.738281 -32.457031 C 78.75 -35.28125 75.738281 -37.335938 71.695312 -38.617188 L 68.3125 -39.691406 L 71.476562 -41.304688 C 74.617188 -42.90625 76.976562 -45.007812 78.5625 -47.605469 C 80.148438 -50.207031 80.941406 -53.167969 80.941406 -56.488281 C 80.941406 -62.25 79.019531 -66.546875 75.183594 -69.382812 C 71.207031 -72.320312 65.148438 -73.789062 57.003906 -73.789062 L 8.394531 -73.789062 L 8.394531 -75.246094 L 9.851562 -75.246094 Z M 28.714844 -31.921875 L 28.714844 -15.441406 L 27.257812 -15.441406 L 27.257812 -16.902344 L 52.339844 -16.902344 C 56.636719 -16.902344 59.765625 -17.3125 61.726562 -18.132812 C 63.273438 -18.78125 64.046875 -20.476562 64.046875 -23.214844 C 64.046875 -25.914062 63.210938 -27.757812 61.542969 -28.753906 C 59.632812 -29.894531 56.5625 -30.464844 52.339844 -30.464844 L 27.257812 -30.464844 L 27.257812 -31.921875 Z M 25.800781 -33.378906 L 52.339844 -33.378906 C 57.101562 -33.378906 60.664062 -32.671875 63.039062 -31.257812 C 65.652344 -29.695312 66.960938 -27.015625 66.960938 -23.214844 C 66.960938 -19.183594 65.59375 -16.59375 62.855469 -15.445312 C 60.53125 -14.472656 57.027344 -13.984375 52.339844 -13.984375 L 25.800781 -13.984375 Z M 28.714844 -59.804688 L 28.714844 -45.085938 L 27.257812 -45.085938 L 27.257812 -46.542969 L 49.542969 -46.542969 C 53.816406 -46.542969 56.929688 -47 58.875 -47.910156 C 60.457031 -48.648438 61.246094 -50.296875 61.246094 -52.859375 C 61.246094 -55.105469 60.480469 -56.539062 58.945312 -57.15625 C 56.980469 -57.949219 53.84375 -58.347656 49.542969 -58.347656 L 27.257812 -58.347656 L 27.257812 -59.804688 Z M 25.800781 -61.261719 L 49.542969 -61.261719 C 54.222656 -61.261719 57.71875 -60.792969 60.039062 -59.859375 C 62.789062 -58.75 64.164062 -56.417969 64.164062 -52.859375 C 64.164062 -49.0625 62.8125 -46.53125 60.109375 -45.269531 C 57.773438 -44.175781 54.25 -43.628906 49.542969 -43.628906 L 25.800781 -43.628906 Z M 25.800781 -61.261719 "/></g></g></g></g></g></g></g></svg>